<mxfile host="app.diagrams.net" agent="Mozilla/5.0 (Windows NT 10.0; Win64; x64) AppleWebKit/537.36 (KHTML, like Gecko) Chrome/128.0.0.0 Safari/537.36" version="24.7.8">
  <diagram name="Trang-1" id="UUA-LW0ybCyTI4EZqxCR">
    <mxGraphModel dx="819" dy="441" grid="1" gridSize="10" guides="1" tooltips="1" connect="1" arrows="1" fold="1" page="1" pageScale="1" pageWidth="1169" pageHeight="827" math="0" shadow="0">
      <root>
        <mxCell id="0" />
        <mxCell id="1" parent="0" />
        <mxCell id="r4HTkkbdZ0VmW0VIp5wF-8" style="edgeStyle=orthogonalEdgeStyle;rounded=0;orthogonalLoop=1;jettySize=auto;html=1;" parent="1" source="EfGkLtAQaOSHbSjD28bd-1" target="EfGkLtAQaOSHbSjD28bd-3" edge="1">
          <mxGeometry relative="1" as="geometry">
            <Array as="points">
              <mxPoint x="240" y="330" />
            </Array>
          </mxGeometry>
        </mxCell>
        <mxCell id="r4HTkkbdZ0VmW0VIp5wF-9" value="Chương trình khuyến mãi" style="edgeLabel;html=1;align=center;verticalAlign=middle;resizable=0;points=[];" parent="r4HTkkbdZ0VmW0VIp5wF-8" vertex="1" connectable="0">
          <mxGeometry x="-0.0863" y="-2" relative="1" as="geometry">
            <mxPoint x="27" y="-8" as="offset" />
          </mxGeometry>
        </mxCell>
        <mxCell id="r4HTkkbdZ0VmW0VIp5wF-17" style="edgeStyle=orthogonalEdgeStyle;rounded=0;orthogonalLoop=1;jettySize=auto;html=1;" parent="1" source="EfGkLtAQaOSHbSjD28bd-1" target="r4HTkkbdZ0VmW0VIp5wF-12" edge="1">
          <mxGeometry relative="1" as="geometry">
            <Array as="points">
              <mxPoint x="580" y="118" />
            </Array>
          </mxGeometry>
        </mxCell>
        <mxCell id="r4HTkkbdZ0VmW0VIp5wF-18" value="Thông tin nhà cung cấp" style="edgeLabel;html=1;align=center;verticalAlign=middle;resizable=0;points=[];" parent="r4HTkkbdZ0VmW0VIp5wF-17" vertex="1" connectable="0">
          <mxGeometry x="0.5171" y="-1" relative="1" as="geometry">
            <mxPoint x="6" y="-9" as="offset" />
          </mxGeometry>
        </mxCell>
        <mxCell id="r4HTkkbdZ0VmW0VIp5wF-20" style="edgeStyle=orthogonalEdgeStyle;rounded=0;orthogonalLoop=1;jettySize=auto;html=1;" parent="1" source="EfGkLtAQaOSHbSjD28bd-1" target="r4HTkkbdZ0VmW0VIp5wF-19" edge="1">
          <mxGeometry relative="1" as="geometry">
            <Array as="points">
              <mxPoint x="980" y="320" />
            </Array>
          </mxGeometry>
        </mxCell>
        <mxCell id="r4HTkkbdZ0VmW0VIp5wF-21" value="Báo cáo tồn kho" style="edgeLabel;html=1;align=center;verticalAlign=middle;resizable=0;points=[];" parent="r4HTkkbdZ0VmW0VIp5wF-20" vertex="1" connectable="0">
          <mxGeometry x="-0.0605" relative="1" as="geometry">
            <mxPoint x="-20" y="-10" as="offset" />
          </mxGeometry>
        </mxCell>
        <mxCell id="f_N-qzSqJRG5SfOeGlTe-2" style="edgeStyle=orthogonalEdgeStyle;rounded=0;orthogonalLoop=1;jettySize=auto;html=1;" parent="1" source="EfGkLtAQaOSHbSjD28bd-1" target="f_N-qzSqJRG5SfOeGlTe-1" edge="1">
          <mxGeometry relative="1" as="geometry">
            <Array as="points">
              <mxPoint x="600" y="118" />
            </Array>
          </mxGeometry>
        </mxCell>
        <mxCell id="f_N-qzSqJRG5SfOeGlTe-3" value="Tiếp nhận đơn hàng" style="edgeLabel;html=1;align=center;verticalAlign=middle;resizable=0;points=[];" parent="f_N-qzSqJRG5SfOeGlTe-2" vertex="1" connectable="0">
          <mxGeometry x="0.5431" y="2" relative="1" as="geometry">
            <mxPoint y="-10" as="offset" />
          </mxGeometry>
        </mxCell>
        <mxCell id="EfGkLtAQaOSHbSjD28bd-1" value="" style="swimlane;fontStyle=0;childLayout=stackLayout;horizontal=1;startSize=20;fillColor=#ffffff;horizontalStack=0;resizeParent=1;resizeParentMax=0;resizeLast=0;collapsible=0;marginBottom=0;swimlaneFillColor=#ffffff;rounded=1;" parent="1" vertex="1">
          <mxGeometry x="520" y="300" width="160" height="160" as="geometry" />
        </mxCell>
        <mxCell id="EfGkLtAQaOSHbSjD28bd-2" value="&lt;font style=&quot;font-size: 14px;&quot;&gt;&lt;b&gt;Hệ thống&lt;/b&gt;&lt;/font&gt;&lt;div style=&quot;font-size: 14px;&quot;&gt;&lt;font style=&quot;font-size: 14px;&quot;&gt;&lt;b&gt;quản lý&lt;/b&gt;&lt;/font&gt;&lt;/div&gt;&lt;div style=&quot;font-size: 14px;&quot;&gt;&lt;font style=&quot;font-size: 14px;&quot;&gt;&lt;b&gt;siêu thị&lt;/b&gt;&lt;/font&gt;&lt;/div&gt;" style="text;html=1;align=center;verticalAlign=middle;whiteSpace=wrap;rounded=1;" parent="EfGkLtAQaOSHbSjD28bd-1" vertex="1">
          <mxGeometry y="20" width="160" height="140" as="geometry" />
        </mxCell>
        <mxCell id="EfGkLtAQaOSHbSjD28bd-4" style="edgeStyle=orthogonalEdgeStyle;rounded=0;orthogonalLoop=1;jettySize=auto;html=1;" parent="1" source="EfGkLtAQaOSHbSjD28bd-3" target="EfGkLtAQaOSHbSjD28bd-1" edge="1">
          <mxGeometry relative="1" as="geometry">
            <Array as="points">
              <mxPoint x="410" y="360" />
              <mxPoint x="410" y="360" />
            </Array>
          </mxGeometry>
        </mxCell>
        <mxCell id="EfGkLtAQaOSHbSjD28bd-6" value="Thông tin khách hàng" style="edgeLabel;html=1;align=center;verticalAlign=middle;resizable=0;points=[];" parent="EfGkLtAQaOSHbSjD28bd-4" vertex="1" connectable="0">
          <mxGeometry x="0.127" y="2" relative="1" as="geometry">
            <mxPoint x="-14" y="-8" as="offset" />
          </mxGeometry>
        </mxCell>
        <mxCell id="r4HTkkbdZ0VmW0VIp5wF-1" style="edgeStyle=orthogonalEdgeStyle;rounded=0;orthogonalLoop=1;jettySize=auto;html=1;" parent="1" source="EfGkLtAQaOSHbSjD28bd-3" target="EfGkLtAQaOSHbSjD28bd-1" edge="1">
          <mxGeometry relative="1" as="geometry">
            <Array as="points">
              <mxPoint x="360" y="380" />
              <mxPoint x="360" y="380" />
            </Array>
          </mxGeometry>
        </mxCell>
        <mxCell id="r4HTkkbdZ0VmW0VIp5wF-2" value="Đơn hàng" style="edgeLabel;html=1;align=center;verticalAlign=middle;resizable=0;points=[];" parent="r4HTkkbdZ0VmW0VIp5wF-1" vertex="1" connectable="0">
          <mxGeometry x="0.0189" y="2" relative="1" as="geometry">
            <mxPoint y="-8" as="offset" />
          </mxGeometry>
        </mxCell>
        <mxCell id="r4HTkkbdZ0VmW0VIp5wF-4" style="edgeStyle=orthogonalEdgeStyle;rounded=0;orthogonalLoop=1;jettySize=auto;html=1;" parent="1" source="EfGkLtAQaOSHbSjD28bd-1" target="EfGkLtAQaOSHbSjD28bd-3" edge="1">
          <mxGeometry relative="1" as="geometry">
            <Array as="points">
              <mxPoint x="410" y="400" />
              <mxPoint x="410" y="400" />
            </Array>
          </mxGeometry>
        </mxCell>
        <mxCell id="r4HTkkbdZ0VmW0VIp5wF-5" value="Hóa đơn" style="edgeLabel;html=1;align=center;verticalAlign=middle;resizable=0;points=[];" parent="r4HTkkbdZ0VmW0VIp5wF-4" vertex="1" connectable="0">
          <mxGeometry x="-0.0011" relative="1" as="geometry">
            <mxPoint y="-10" as="offset" />
          </mxGeometry>
        </mxCell>
        <mxCell id="r4HTkkbdZ0VmW0VIp5wF-10" style="edgeStyle=orthogonalEdgeStyle;rounded=0;orthogonalLoop=1;jettySize=auto;html=1;entryX=0.5;entryY=1;entryDx=0;entryDy=0;" parent="1" source="EfGkLtAQaOSHbSjD28bd-1" target="EfGkLtAQaOSHbSjD28bd-3" edge="1">
          <mxGeometry relative="1" as="geometry">
            <Array as="points">
              <mxPoint x="240" y="450" />
            </Array>
          </mxGeometry>
        </mxCell>
        <mxCell id="r4HTkkbdZ0VmW0VIp5wF-11" value="Hỗ trợ" style="edgeLabel;html=1;align=center;verticalAlign=middle;resizable=0;points=[];" parent="r4HTkkbdZ0VmW0VIp5wF-10" vertex="1" connectable="0">
          <mxGeometry x="0.0344" y="1" relative="1" as="geometry">
            <mxPoint x="47" y="-11" as="offset" />
          </mxGeometry>
        </mxCell>
        <mxCell id="EfGkLtAQaOSHbSjD28bd-3" value="&lt;font style=&quot;font-size: 14px;&quot;&gt;&lt;b&gt;Khách hàng&lt;/b&gt;&lt;/font&gt;" style="rounded=0;whiteSpace=wrap;html=1;" parent="1" vertex="1">
          <mxGeometry x="180" y="350" width="120" height="76" as="geometry" />
        </mxCell>
        <mxCell id="r4HTkkbdZ0VmW0VIp5wF-6" style="edgeStyle=orthogonalEdgeStyle;rounded=0;orthogonalLoop=1;jettySize=auto;html=1;" parent="1" source="EfGkLtAQaOSHbSjD28bd-1" target="EfGkLtAQaOSHbSjD28bd-3" edge="1">
          <mxGeometry relative="1" as="geometry">
            <Array as="points">
              <mxPoint x="420" y="420" />
              <mxPoint x="420" y="420" />
            </Array>
          </mxGeometry>
        </mxCell>
        <mxCell id="r4HTkkbdZ0VmW0VIp5wF-7" value="Thông tin thanh toán" style="edgeLabel;html=1;align=center;verticalAlign=middle;resizable=0;points=[];" parent="r4HTkkbdZ0VmW0VIp5wF-6" vertex="1" connectable="0">
          <mxGeometry x="-0.0128" y="1" relative="1" as="geometry">
            <mxPoint y="-11" as="offset" />
          </mxGeometry>
        </mxCell>
        <mxCell id="r4HTkkbdZ0VmW0VIp5wF-13" style="edgeStyle=orthogonalEdgeStyle;rounded=0;orthogonalLoop=1;jettySize=auto;html=1;" parent="1" source="r4HTkkbdZ0VmW0VIp5wF-12" target="EfGkLtAQaOSHbSjD28bd-1" edge="1">
          <mxGeometry relative="1" as="geometry">
            <Array as="points">
              <mxPoint x="320" y="190" />
              <mxPoint x="560" y="190" />
            </Array>
          </mxGeometry>
        </mxCell>
        <mxCell id="r4HTkkbdZ0VmW0VIp5wF-14" value="Đơn hàng" style="edgeLabel;html=1;align=center;verticalAlign=middle;resizable=0;points=[];" parent="r4HTkkbdZ0VmW0VIp5wF-13" vertex="1" connectable="0">
          <mxGeometry x="-0.2984" y="1" relative="1" as="geometry">
            <mxPoint y="-9" as="offset" />
          </mxGeometry>
        </mxCell>
        <mxCell id="r4HTkkbdZ0VmW0VIp5wF-15" style="edgeStyle=orthogonalEdgeStyle;rounded=0;orthogonalLoop=1;jettySize=auto;html=1;" parent="1" source="r4HTkkbdZ0VmW0VIp5wF-12" target="EfGkLtAQaOSHbSjD28bd-1" edge="1">
          <mxGeometry relative="1" as="geometry">
            <mxPoint x="290" y="96" as="sourcePoint" />
            <mxPoint x="570.0000000000001" y="300" as="targetPoint" />
            <Array as="points">
              <mxPoint x="280" y="220" />
              <mxPoint x="540" y="220" />
            </Array>
          </mxGeometry>
        </mxCell>
        <mxCell id="r4HTkkbdZ0VmW0VIp5wF-16" value="Chứng từ, hóa đơn mua hàng" style="edgeLabel;html=1;align=center;verticalAlign=middle;resizable=0;points=[];" parent="r4HTkkbdZ0VmW0VIp5wF-15" vertex="1" connectable="0">
          <mxGeometry x="-0.0082" y="1" relative="1" as="geometry">
            <mxPoint x="-11" y="-9" as="offset" />
          </mxGeometry>
        </mxCell>
        <mxCell id="r4HTkkbdZ0VmW0VIp5wF-12" value="&lt;font style=&quot;font-size: 14px;&quot;&gt;&lt;b&gt;Nhà cung cấp&lt;/b&gt;&lt;/font&gt;" style="rounded=0;whiteSpace=wrap;html=1;" parent="1" vertex="1">
          <mxGeometry x="240" y="80" width="120" height="76" as="geometry" />
        </mxCell>
        <mxCell id="r4HTkkbdZ0VmW0VIp5wF-22" style="edgeStyle=orthogonalEdgeStyle;rounded=0;orthogonalLoop=1;jettySize=auto;html=1;" parent="1" source="EfGkLtAQaOSHbSjD28bd-1" target="r4HTkkbdZ0VmW0VIp5wF-19" edge="1">
          <mxGeometry relative="1" as="geometry">
            <Array as="points">
              <mxPoint x="800" y="340" />
              <mxPoint x="800" y="340" />
            </Array>
          </mxGeometry>
        </mxCell>
        <mxCell id="r4HTkkbdZ0VmW0VIp5wF-27" value="Báo cáo doanh thu, lợi nhuận" style="edgeLabel;html=1;align=center;verticalAlign=middle;resizable=0;points=[];" parent="r4HTkkbdZ0VmW0VIp5wF-22" vertex="1" connectable="0">
          <mxGeometry x="-0.0252" y="2" relative="1" as="geometry">
            <mxPoint y="-8" as="offset" />
          </mxGeometry>
        </mxCell>
        <mxCell id="r4HTkkbdZ0VmW0VIp5wF-23" style="edgeStyle=orthogonalEdgeStyle;rounded=0;orthogonalLoop=1;jettySize=auto;html=1;" parent="1" source="EfGkLtAQaOSHbSjD28bd-1" target="r4HTkkbdZ0VmW0VIp5wF-19" edge="1">
          <mxGeometry relative="1" as="geometry">
            <Array as="points">
              <mxPoint x="800" y="360" />
              <mxPoint x="800" y="360" />
            </Array>
            <mxPoint x="679.9999999999998" y="364.0000000000001" as="sourcePoint" />
            <mxPoint x="919.9999999999998" y="371.9999999999999" as="targetPoint" />
          </mxGeometry>
        </mxCell>
        <mxCell id="r4HTkkbdZ0VmW0VIp5wF-28" value="Đơn giá nhập hàng" style="edgeLabel;html=1;align=center;verticalAlign=middle;resizable=0;points=[];" parent="r4HTkkbdZ0VmW0VIp5wF-23" vertex="1" connectable="0">
          <mxGeometry x="0.0284" y="1" relative="1" as="geometry">
            <mxPoint y="-7" as="offset" />
          </mxGeometry>
        </mxCell>
        <mxCell id="r4HTkkbdZ0VmW0VIp5wF-24" style="edgeStyle=orthogonalEdgeStyle;rounded=0;orthogonalLoop=1;jettySize=auto;html=1;" parent="1" source="r4HTkkbdZ0VmW0VIp5wF-19" target="EfGkLtAQaOSHbSjD28bd-1" edge="1">
          <mxGeometry relative="1" as="geometry">
            <Array as="points">
              <mxPoint x="810" y="380" />
              <mxPoint x="810" y="380" />
            </Array>
          </mxGeometry>
        </mxCell>
        <mxCell id="r4HTkkbdZ0VmW0VIp5wF-29" value="Xử lý lương, thưởng" style="edgeLabel;html=1;align=center;verticalAlign=middle;resizable=0;points=[];" parent="r4HTkkbdZ0VmW0VIp5wF-24" vertex="1" connectable="0">
          <mxGeometry x="-0.0386" y="1" relative="1" as="geometry">
            <mxPoint y="-11" as="offset" />
          </mxGeometry>
        </mxCell>
        <mxCell id="r4HTkkbdZ0VmW0VIp5wF-25" style="edgeStyle=orthogonalEdgeStyle;rounded=0;orthogonalLoop=1;jettySize=auto;html=1;" parent="1" source="r4HTkkbdZ0VmW0VIp5wF-19" target="EfGkLtAQaOSHbSjD28bd-1" edge="1">
          <mxGeometry relative="1" as="geometry">
            <Array as="points">
              <mxPoint x="740" y="400" />
              <mxPoint x="740" y="400" />
            </Array>
          </mxGeometry>
        </mxCell>
        <mxCell id="r4HTkkbdZ0VmW0VIp5wF-30" value="Phân tích hiệu quả kinh doanh" style="edgeLabel;html=1;align=center;verticalAlign=middle;resizable=0;points=[];" parent="r4HTkkbdZ0VmW0VIp5wF-25" vertex="1" connectable="0">
          <mxGeometry x="0.0822" y="-1" relative="1" as="geometry">
            <mxPoint x="10" y="-9" as="offset" />
          </mxGeometry>
        </mxCell>
        <mxCell id="r4HTkkbdZ0VmW0VIp5wF-26" style="edgeStyle=orthogonalEdgeStyle;rounded=0;orthogonalLoop=1;jettySize=auto;html=1;exitX=0.5;exitY=1;exitDx=0;exitDy=0;" parent="1" source="r4HTkkbdZ0VmW0VIp5wF-19" target="EfGkLtAQaOSHbSjD28bd-1" edge="1">
          <mxGeometry relative="1" as="geometry">
            <Array as="points">
              <mxPoint x="980" y="420" />
            </Array>
          </mxGeometry>
        </mxCell>
        <mxCell id="r4HTkkbdZ0VmW0VIp5wF-31" value="Tạo báo cáo tài chính" style="edgeLabel;html=1;align=center;verticalAlign=middle;resizable=0;points=[];" parent="r4HTkkbdZ0VmW0VIp5wF-26" vertex="1" connectable="0">
          <mxGeometry x="0.2303" y="-1" relative="1" as="geometry">
            <mxPoint x="-2" y="-9" as="offset" />
          </mxGeometry>
        </mxCell>
        <mxCell id="r4HTkkbdZ0VmW0VIp5wF-19" value="&lt;font style=&quot;font-size: 14px;&quot;&gt;&lt;b&gt;Bộ phận quản lý&lt;/b&gt;&lt;/font&gt;" style="rounded=0;whiteSpace=wrap;html=1;" parent="1" vertex="1">
          <mxGeometry x="920" y="330" width="120" height="76" as="geometry" />
        </mxCell>
        <mxCell id="r4HTkkbdZ0VmW0VIp5wF-35" style="edgeStyle=orthogonalEdgeStyle;rounded=0;orthogonalLoop=1;jettySize=auto;html=1;exitX=1;exitY=0.25;exitDx=0;exitDy=0;" parent="1" source="r4HTkkbdZ0VmW0VIp5wF-32" target="EfGkLtAQaOSHbSjD28bd-1" edge="1">
          <mxGeometry relative="1" as="geometry">
            <Array as="points">
              <mxPoint x="660" y="630" />
              <mxPoint x="700" y="630" />
              <mxPoint x="700" y="560" />
              <mxPoint x="600" y="560" />
            </Array>
          </mxGeometry>
        </mxCell>
        <mxCell id="r4HTkkbdZ0VmW0VIp5wF-40" value="Kiểm tra hàng hóa" style="edgeLabel;html=1;align=center;verticalAlign=middle;resizable=0;points=[];" parent="r4HTkkbdZ0VmW0VIp5wF-35" vertex="1" connectable="0">
          <mxGeometry x="0.066" y="-2" relative="1" as="geometry">
            <mxPoint y="-8" as="offset" />
          </mxGeometry>
        </mxCell>
        <mxCell id="r4HTkkbdZ0VmW0VIp5wF-36" style="edgeStyle=orthogonalEdgeStyle;rounded=0;orthogonalLoop=1;jettySize=auto;html=1;exitX=1;exitY=0.5;exitDx=0;exitDy=0;" parent="1" source="r4HTkkbdZ0VmW0VIp5wF-32" target="EfGkLtAQaOSHbSjD28bd-1" edge="1">
          <mxGeometry relative="1" as="geometry">
            <Array as="points">
              <mxPoint x="660" y="660" />
              <mxPoint x="730" y="660" />
              <mxPoint x="730" y="530" />
              <mxPoint x="630" y="530" />
            </Array>
          </mxGeometry>
        </mxCell>
        <mxCell id="r4HTkkbdZ0VmW0VIp5wF-39" value="Mặt hàng" style="edgeLabel;html=1;align=center;verticalAlign=middle;resizable=0;points=[];" parent="r4HTkkbdZ0VmW0VIp5wF-36" vertex="1" connectable="0">
          <mxGeometry x="0.366" y="-2" relative="1" as="geometry">
            <mxPoint x="2" y="-8" as="offset" />
          </mxGeometry>
        </mxCell>
        <mxCell id="r4HTkkbdZ0VmW0VIp5wF-37" style="edgeStyle=orthogonalEdgeStyle;rounded=0;orthogonalLoop=1;jettySize=auto;html=1;" parent="1" source="r4HTkkbdZ0VmW0VIp5wF-32" target="EfGkLtAQaOSHbSjD28bd-1" edge="1">
          <mxGeometry relative="1" as="geometry">
            <Array as="points">
              <mxPoint x="760" y="690" />
              <mxPoint x="760" y="500" />
              <mxPoint x="660" y="500" />
            </Array>
          </mxGeometry>
        </mxCell>
        <mxCell id="r4HTkkbdZ0VmW0VIp5wF-38" value="Nhà cung cấp" style="edgeLabel;html=1;align=center;verticalAlign=middle;resizable=0;points=[];" parent="r4HTkkbdZ0VmW0VIp5wF-37" vertex="1" connectable="0">
          <mxGeometry x="0.5894" relative="1" as="geometry">
            <mxPoint y="-10" as="offset" />
          </mxGeometry>
        </mxCell>
        <mxCell id="r4HTkkbdZ0VmW0VIp5wF-41" style="edgeStyle=orthogonalEdgeStyle;rounded=0;orthogonalLoop=1;jettySize=auto;html=1;" parent="1" source="EfGkLtAQaOSHbSjD28bd-1" target="r4HTkkbdZ0VmW0VIp5wF-32" edge="1">
          <mxGeometry relative="1" as="geometry">
            <Array as="points">
              <mxPoint x="570" y="560" />
              <mxPoint x="460" y="560" />
              <mxPoint x="460" y="650" />
            </Array>
          </mxGeometry>
        </mxCell>
        <mxCell id="r4HTkkbdZ0VmW0VIp5wF-42" value="Doanh số chi" style="edgeLabel;html=1;align=center;verticalAlign=middle;resizable=0;points=[];" parent="r4HTkkbdZ0VmW0VIp5wF-41" vertex="1" connectable="0">
          <mxGeometry x="-0.0993" relative="1" as="geometry">
            <mxPoint y="-10" as="offset" />
          </mxGeometry>
        </mxCell>
        <mxCell id="r4HTkkbdZ0VmW0VIp5wF-32" value="&lt;font style=&quot;font-size: 14px;&quot;&gt;&lt;b&gt;Bộ phận nhập hàng&lt;/b&gt;&lt;/font&gt;" style="rounded=0;whiteSpace=wrap;html=1;" parent="1" vertex="1">
          <mxGeometry x="540" y="620" width="120" height="76" as="geometry" />
        </mxCell>
        <mxCell id="r4HTkkbdZ0VmW0VIp5wF-33" style="edgeStyle=orthogonalEdgeStyle;rounded=0;orthogonalLoop=1;jettySize=auto;html=1;" parent="1" source="EfGkLtAQaOSHbSjD28bd-1" target="r4HTkkbdZ0VmW0VIp5wF-32" edge="1">
          <mxGeometry relative="1" as="geometry">
            <Array as="points">
              <mxPoint x="540" y="530" />
              <mxPoint x="430" y="530" />
              <mxPoint x="430" y="670" />
            </Array>
          </mxGeometry>
        </mxCell>
        <mxCell id="r4HTkkbdZ0VmW0VIp5wF-34" value="Phiếu nhập hàng" style="edgeLabel;html=1;align=center;verticalAlign=middle;resizable=0;points=[];" parent="r4HTkkbdZ0VmW0VIp5wF-33" vertex="1" connectable="0">
          <mxGeometry x="-0.3419" relative="1" as="geometry">
            <mxPoint y="-10" as="offset" />
          </mxGeometry>
        </mxCell>
        <mxCell id="f_N-qzSqJRG5SfOeGlTe-4" style="edgeStyle=orthogonalEdgeStyle;rounded=0;orthogonalLoop=1;jettySize=auto;html=1;exitX=0.25;exitY=1;exitDx=0;exitDy=0;" parent="1" source="f_N-qzSqJRG5SfOeGlTe-1" target="EfGkLtAQaOSHbSjD28bd-1" edge="1">
          <mxGeometry relative="1" as="geometry">
            <Array as="points">
              <mxPoint x="860" y="190" />
              <mxPoint x="620" y="190" />
            </Array>
          </mxGeometry>
        </mxCell>
        <mxCell id="f_N-qzSqJRG5SfOeGlTe-5" value="Xử lý đơn hàng" style="edgeLabel;html=1;align=center;verticalAlign=middle;resizable=0;points=[];" parent="f_N-qzSqJRG5SfOeGlTe-4" vertex="1" connectable="0">
          <mxGeometry x="0.0007" y="-2" relative="1" as="geometry">
            <mxPoint x="78" y="-8" as="offset" />
          </mxGeometry>
        </mxCell>
        <mxCell id="f_N-qzSqJRG5SfOeGlTe-6" style="edgeStyle=orthogonalEdgeStyle;rounded=0;orthogonalLoop=1;jettySize=auto;html=1;exitX=0.5;exitY=1;exitDx=0;exitDy=0;" parent="1" source="f_N-qzSqJRG5SfOeGlTe-1" target="EfGkLtAQaOSHbSjD28bd-1" edge="1">
          <mxGeometry relative="1" as="geometry">
            <Array as="points">
              <mxPoint x="890" y="220" />
              <mxPoint x="640" y="220" />
            </Array>
          </mxGeometry>
        </mxCell>
        <mxCell id="f_N-qzSqJRG5SfOeGlTe-7" value="Hỗ trợ khách hàng" style="edgeLabel;html=1;align=center;verticalAlign=middle;resizable=0;points=[];" parent="f_N-qzSqJRG5SfOeGlTe-6" vertex="1" connectable="0">
          <mxGeometry x="-0.0133" relative="1" as="geometry">
            <mxPoint x="20" y="-10" as="offset" />
          </mxGeometry>
        </mxCell>
        <mxCell id="f_N-qzSqJRG5SfOeGlTe-8" style="edgeStyle=orthogonalEdgeStyle;rounded=0;orthogonalLoop=1;jettySize=auto;html=1;exitX=0.75;exitY=1;exitDx=0;exitDy=0;" parent="1" source="f_N-qzSqJRG5SfOeGlTe-1" target="EfGkLtAQaOSHbSjD28bd-1" edge="1">
          <mxGeometry relative="1" as="geometry">
            <Array as="points">
              <mxPoint x="920" y="250" />
              <mxPoint x="660" y="250" />
            </Array>
          </mxGeometry>
        </mxCell>
        <mxCell id="f_N-qzSqJRG5SfOeGlTe-9" value="Báo cáo bán hàng" style="edgeLabel;html=1;align=center;verticalAlign=middle;resizable=0;points=[];" parent="f_N-qzSqJRG5SfOeGlTe-8" vertex="1" connectable="0">
          <mxGeometry x="0.0169" y="-1" relative="1" as="geometry">
            <mxPoint x="-31" y="-12" as="offset" />
          </mxGeometry>
        </mxCell>
        <mxCell id="f_N-qzSqJRG5SfOeGlTe-1" value="&lt;font style=&quot;font-size: 14px;&quot;&gt;&lt;b&gt;Bộ phận bán hàng&lt;/b&gt;&lt;/font&gt;" style="rounded=0;whiteSpace=wrap;html=1;" parent="1" vertex="1">
          <mxGeometry x="830" y="80" width="120" height="76" as="geometry" />
        </mxCell>
      </root>
    </mxGraphModel>
  </diagram>
</mxfile>
